<?xml version="1.0" standalone="no"?>
<!DOCTYPE svg PUBLIC "-//W3C//DTD SVG 20010904//EN"
 "http://www.w3.org/TR/2001/REC-SVG-20010904/DTD/svg10.dtd">
<svg version="1.0" xmlns="http://www.w3.org/2000/svg"
 width="524.000000pt" height="142.000000pt" viewBox="0 0 524.000000 142.000000"
 preserveAspectRatio="xMidYMid meet">

<g transform="translate(0.000000,142.000000) scale(0.100000,-0.100000)"
fill="#333" stroke="none">
<path d="M1266 1225 c-43 -15 -91 -57 -112 -97 -32 -62 -10 -183 43 -230 54
-49 166 -62 239 -29 54 25 61 37 34 66 l-22 23 -32 -19 c-48 -30 -118 -26
-157 9 -63 56 -47 171 29 208 42 19 104 14 133 -12 18 -17 20 -16 45 7 l25 24
-25 22 c-49 41 -130 53 -200 28z"/>
<path d="M2715 1227 c-78 -31 -94 -54 -51 -76 19 -11 28 -10 54 3 66 34 132 6
118 -50 -4 -15 -45 -63 -97 -112 -72 -68 -89 -90 -89 -113 l0 -29 140 0 140 0
0 35 0 35 -82 0 -82 0 66 68 c73 74 88 98 88 137 0 86 -108 140 -205 102z"/>
<path d="M3120 1218 c-78 -40 -113 -156 -79 -259 44 -131 213 -149 283 -29 29
49 29 169 0 225 -22 43 -88 85 -134 85 -14 0 -46 -10 -70 -22z m126 -69 c26
-29 33 -153 10 -197 -18 -36 -55 -50 -95 -36 -37 13 -51 49 -51 130 0 57 4 77
21 98 27 34 86 37 115 5z"/>
<path d="M3507 1226 c-21 -8 -47 -22 -58 -32 -21 -19 -21 -19 7 -41 27 -21 28
-21 52 -2 30 23 85 25 106 3 36 -35 21 -64 -79 -159 -75 -71 -95 -96 -95 -117
l0 -28 145 0 145 0 0 35 0 35 -80 0 c-44 0 -80 4 -80 9 0 6 23 29 50 52 63 53
90 96 90 143 0 52 -15 75 -63 97 -49 22 -88 23 -140 5z"/>
<path d="M3876 1226 c-22 -8 -48 -23 -58 -34 -19 -19 -19 -19 8 -37 25 -16 29
-16 55 -1 41 25 95 21 114 -8 23 -35 9 -59 -89 -156 -67 -66 -86 -91 -86 -112
l0 -28 140 0 140 0 0 35 0 35 -82 0 -81 0 71 73 c51 53 72 83 77 109 8 43 -8
83 -45 110 -34 25 -115 32 -164 14z"/>
<path d="M1642 1046 c-45 -101 -82 -187 -82 -190 0 -3 18 -6 39 -6 37 0 40 2
57 45 l17 45 92 0 92 0 17 -45 c17 -44 19 -45 61 -45 l44 0 -85 186 c-46 103
-84 188 -84 190 0 2 -20 4 -43 4 l-44 0 -81 -184z m161 36 c15 -37 27 -73 27
-80 0 -8 -20 -12 -65 -12 -45 0 -65 4 -65 12 0 26 54 148 65 148 7 0 24 -30
38 -68z"/>
<path d="M2070 1040 l0 -190 45 0 45 0 0 70 0 70 85 0 85 0 0 35 0 35 -85 0
-85 0 0 55 0 55 100 0 100 0 0 30 0 30 -145 0 -145 0 0 -190z"/>
<path d="M637 1034 c-10 -11 -8 -827 2 -843 5 -8 16 -11 25 -8 15 6 16 48 14
429 -3 372 -5 423 -18 426 -9 1 -19 0 -23 -4z"/>
<path d="M751 926 c-8 -9 -11 -101 -9 -322 3 -301 3 -309 23 -309 20 0 20 8
23 311 2 255 0 313 -12 323 -10 9 -16 8 -25 -3z"/>
<path d="M420 610 c0 -313 0 -320 20 -320 20 0 20 7 20 320 0 313 0 320 -20
320 -20 0 -20 -7 -20 -320z"/>
<path d="M537 824 c-4 -4 -7 -101 -7 -216 0 -202 1 -208 20 -208 20 0 20 5 18
212 -3 199 -8 235 -31 212z"/>
<path d="M852 821 c-9 -6 -12 -58 -10 -212 3 -196 4 -204 23 -204 19 0 20 8
23 201 2 156 -1 204 -11 212 -7 6 -18 7 -25 3z"/>
<path d="M317 713 c-4 -3 -7 -48 -7 -100 0 -77 3 -95 16 -100 25 -9 34 16 34
103 0 85 -17 124 -43 97z"/>
<path d="M131 626 c-20 -24 -4 -36 45 -36 41 0 45 2 42 23 -2 17 -10 23 -39
25 -23 2 -40 -2 -48 -12z"/>
<path d="M964 625 c-3 -8 -3 -19 1 -25 4 -7 645 -10 2080 -10 2169 0 2112 -1
2072 39 -8 8 -564 11 -2079 11 -1799 0 -2069 -2 -2074 -15z"/>
</g>
</svg>
